<svg 
 xmlns="http://www.w3.org/2000/svg"
 xmlns:xlink="http://www.w3.org/1999/xlink"
 width="2046px" height="2274px">
<path fill-rule="evenodd"  fill="rgb(248, 248, 248)"
 d="M1694.699,1784.942 C1726.529,1834.416 1745.000,1893.300 1745.000,1956.500 C1745.000,2131.850 1602.850,2274.000 1427.500,2274.000 C1277.663,2274.000 1152.088,2170.198 1118.712,2030.588 C1087.199,2033.496 1055.277,2035.000 1023.000,2035.000 C458.013,2035.000 0.000,1579.449 0.000,1017.499 C0.000,455.550 458.013,-0.000 1023.000,-0.000 C1587.987,-0.000 2046.000,455.550 2046.000,1017.499 C2046.000,1323.759 1909.952,1598.406 1694.699,1784.942 ZM1427.500,2161.941 C1540.962,2161.941 1632.941,2069.961 1632.941,1956.499 C1632.941,1919.169 1622.982,1884.165 1605.579,1853.997 C1494.483,1930.684 1367.378,1986.036 1230.256,2014.100 C1255.161,2099.522 1334.036,2161.941 1427.500,2161.941 Z"/>
</svg>