<svg 
 xmlns="http://www.w3.org/2000/svg"
 xmlns:xlink="http://www.w3.org/1999/xlink"
 width="1436px" height="1596px">
<path fill-rule="evenodd"  fill="rgb(248, 248, 248)"
 d="M1189.444,1252.743 C1211.786,1287.468 1224.750,1328.797 1224.750,1373.156 C1224.750,1496.229 1124.979,1596.000 1001.906,1596.000 C896.739,1596.000 808.601,1523.143 785.177,1425.153 C763.059,1427.195 740.654,1428.250 718.000,1428.250 C321.460,1428.250 0.000,1108.525 0.000,714.125 C0.000,319.725 321.460,-0.000 718.000,-0.000 C1114.540,-0.000 1436.000,319.725 1436.000,714.125 C1436.000,929.068 1340.517,1121.824 1189.444,1252.743 ZM1001.901,1517.352 C1081.535,1517.352 1146.092,1452.796 1146.092,1373.163 C1146.092,1346.961 1139.100,1322.392 1126.884,1301.217 C1048.911,1355.038 959.701,1393.886 863.462,1413.582 C880.939,1473.539 936.300,1517.352 1001.901,1517.352 Z"/>
</svg>