<svg xmlns="http://www.w3.org/2000/svg" width="2046" height="2274"><path fill-rule="evenodd" fill="#F8F8F8" d="M1694.699 1784.942C1726.529 1834.416 1745 1893.3 1745 1956.5c0 175.35-142.15 317.5-317.5 317.5-149.837 0-275.412-103.802-308.788-243.412A1041.337 1041.337 0 0 1 1023 2035C458.013 2035 0 1579.449 0 1017.499 0 455.55 458.013 0 1023 0c564.987 0 1023 455.55 1023 1017.499 0 306.26-136.048 580.907-351.301 767.443zM1427.5 2161.941c113.462 0 205.441-91.98 205.441-205.442 0-37.33-9.959-72.334-27.362-102.502-111.096 76.687-238.201 132.039-375.323 160.103 24.905 85.422 103.78 147.841 197.244 147.841z"/></svg>