<svg xmlns="http://www.w3.org/2000/svg" width="1436" height="1596"><path fill-rule="evenodd" fill="#F8F8F8" d="M1189.444 1252.743c22.342 34.725 35.306 76.054 35.306 120.413 0 123.073-99.771 222.844-222.844 222.844-105.167 0-193.305-72.857-216.729-170.847A730.538 730.538 0 0 1 718 1428.25c-396.54 0-718-319.725-718-714.125S321.46 0 718 0s718 319.725 718 714.125c0 214.943-95.483 407.699-246.556 538.618zm-187.543 264.609c79.634 0 144.191-64.556 144.191-144.189 0-26.202-6.992-50.771-19.208-71.946-77.973 53.821-167.183 92.669-263.422 112.365 17.477 59.957 72.838 103.77 138.439 103.77z"/></svg>